mtllib model_0.mtl
o model_0
v -34.56277847290039 21.80900001525879 171.11700439453125 
v -26.318439483642578 16.735559463500977 171.11700439453125 
v -28.220979690551758 30.053340911865234 171.11700439453125 
v -18.074100494384766 23.077360153198242 171.11700439453125 
v -8.561400413513184 16.735559463500977 171.11700439453125 
v -17.43992042541504 11.66211986541748 171.11700439453125 
v -8.561400413513184 6.588679790496826 171.11700439453125 
v -17.43992042541504 2.1494200229644775 171.11700439453125 
v -27.58679962158203 6.588679790496826 171.11700439453125 
v -39.00204086303711 12.296299934387207 171.11700439453125 
v -28.855159759521484 -2.9240200519561768 171.11700439453125 
v -40.27040100097656 1.515239953994751 171.11700439453125 
v -39.00204086303711 -8.631640434265137 171.11700439453125 
v -28.220979690551758 -14.33926010131836 171.11700439453125 
v -28.220979690551758 -26.38867950439453 171.11700439453125 
v -18.708280563354492 -20.681060791015625 171.11700439453125 
v -19.976640701293945 -32.7304801940918 171.11700439453125 
v -10.463939666748047 -37.16973876953125 171.11700439453125 
v -9.195579528808594 -24.48613929748535 171.11700439453125 
v 0.3171199858188629 -28.29121971130371 171.11700439453125 
v 0.3171199858188629 -38.4380989074707 171.11700439453125 
v 10.46399974822998 -37.16973876953125 171.11700439453125 
v 9.195639610290527 -24.48613929748535 171.11700439453125 
v 18.70833969116211 -20.681060791015625 171.11700439453125 
v 19.976699829101562 -32.7304801940918 171.11700439453125 
v 28.221040725708008 -26.38867950439453 171.11700439453125 
v 28.221040725708008 -14.33926010131836 171.11700439453125 
v 39.00210189819336 -8.631640434265137 171.11700439453125 
v 28.855220794677734 -2.9240200519561768 171.11700439453125 
v 40.27045822143555 2.1494200229644775 171.11700439453125 
v 39.00210189819336 12.296299934387207 171.11700439453125 
v 27.58686065673828 6.588679790496826 171.11700439453125 
v 26.318500518798828 16.735559463500977 171.11700439453125 
v 34.56283950805664 21.80900001525879 171.11700439453125 
v 28.221040725708008 30.053340911865234 171.11700439453125 
v 18.074159622192383 23.077360153198242 171.11700439453125 
v 9.829819679260254 29.419160842895508 171.11700439453125 
v 19.976699829101562 36.3951416015625 171.11700439453125 
v 10.46399974822998 40.83440017700195 171.11700439453125 
v -0.3170599937438965 34.49259948730469 171.11700439453125 
v -10.463939666748047 40.83440017700195 171.11700439453125 
v -0.3170599937438965 42.102760314941406 171.11700439453125 
v -34.56277847290039 -18.14434051513672 171.11700439453125 
v 34.56283950805664 -18.14434051513672 171.11700439453125 
v -9.82975959777832 29.419160842895508 171.11700439453125 
v -0.3170599937438965 21.80900001525879 171.11700439453125 
v 8.5614595413208 16.735559463500977 171.11700439453125 
v -19.976640701293945 36.3951416015625 171.11700439453125 
v 17.439979553222656 11.66211986541748 171.11700439453125 
v 17.439979553222656 2.1494200229644775 171.11700439453125 
v 17.439979553222656 -7.997459888458252 171.11700439453125 
v 8.5614595413208 -13.070899963378906 171.11700439453125 
v 0.3171199858188629 -18.14434051513672 171.11700439453125 
v -8.561400413513184 -13.070899963378906 171.11700439453125 
v -17.43992042541504 -7.997459888458252 171.11700439453125 
v -8.561400413513184 -2.9240200519561768 171.11700439453125 
v 0.3171199858188629 -7.997459888458252 171.11700439453125 
v 8.5614595413208 -2.9240200519561768 171.11700439453125 
v 8.5614595413208 6.588679790496826 171.11700439453125 
v -0.3170599937438965 11.66211986541748 171.11700439453125 
v 0.3171199858188629 2.1494200229644775 171.11700439453125 
vn 0 0 1 
vn 0 0 1 
vn 0 0 1 
vn 0 0 1 
vn 0 0 1 
vn 0 0 1 
vn 0 0 1 
vn 0 0 1 
vn 0 0 1 
vn 0 0 1 
vn 0 0 1 
vn 0 0 1 
vn 0 0 1 
vn 0 0 1 
vn 0 0 1 
vn 0 0 1 
vn 0 0 1 
vn 0 0 1 
vn 0 0 1 
vn 0 0 1 
vn 0 0 1 
vn 0 0 1 
vn 0 0 1 
vn 0 0 1 
vn 0 0 1 
vn 0 0 1 
vn 0 0 1 
vn 0 0 1 
vn 0 0 1 
vn 0 0 1 
vn 0 0 1 
vn 0 0 1 
vn 0 0 1 
vn 0 0 1 
vn 0 0 1 
vn 0 0 1 
vn 0 0 1 
vn 0 0 1 
vn 0 0 1 
vn 0 0 1 
vn 0 0 1 
vn 0 0 1 
vn 0 0 1 
vn 0 0 1 
vn 0 0 1 
vn 0 0 1 
vn 0 0 1 
vn 0 0 1 
vn 0 0 1 
vn 0 0 1 
vn 0 0 1 
vn 0 0 1 
vn 0 0 1 
vn 0 0 1 
vn 0 0 1 
vn 0 0 1 
vn 0 0 1 
vn 0 0 1 
vn 0 0 1 
vn 0 0 1 
vn 0 0 1 
s on 
f 1//1 2//2 3//3 
f 2//2 2//2 3//3 
f 3//3 2//2 4//4 
f 2//2 2//2 4//4 
f 4//4 2//2 5//5 
f 2//2 6//6 5//5 
f 5//5 6//6 7//7 
f 6//6 6//6 7//7 
f 7//7 6//6 8//8 
f 6//6 2//2 8//8 
f 8//8 2//2 9//9 
f 2//2 10//10 9//9 
f 9//9 10//10 11//11 
f 10//10 12//12 11//11 
f 11//11 12//12 11//11 
f 12//12 13//13 11//11 
f 11//11 13//13 14//14 
f 13//13 15//15 14//14 
f 14//14 15//15 16//16 
f 15//15 17//17 16//16 
f 16//16 17//17 16//16 
f 17//17 18//18 16//16 
f 16//16 18//18 19//19 
f 18//18 18//18 19//19 
f 19//19 18//18 20//20 
f 18//18 21//21 20//20 
f 20//20 21//21 20//20 
f 21//21 22//22 20//20 
f 20//20 22//22 23//23 
f 22//22 22//22 23//23 
f 23//23 22//22 24//24 
f 22//22 25//25 24//24 
f 24//24 25//25 24//24 
f 25//25 26//26 24//24 
f 24//24 26//26 27//27 
f 26//26 28//28 27//27 
f 27//27 28//28 29//29 
f 28//28 30//30 29//29 
f 29//29 30//30 29//29 
f 30//30 31//31 29//29 
f 29//29 31//31 32//32 
f 31//31 31//31 32//32 
f 32//32 31//31 33//33 
f 31//31 34//34 33//33 
f 33//33 34//34 33//33 
f 34//34 35//35 33//33 
f 33//33 35//35 36//36 
f 35//35 35//35 36//36 
f 36//36 35//35 37//37 
f 35//35 38//38 37//37 
f 37//37 38//38 37//37 
f 38//38 39//39 37//37 
f 37//37 39//39 40//40 
f 39//39 39//39 40//40 
f 40//40 39//39 41//41 
f 39//39 42//42 41//41 
f 41//41 42//42 42//42 
f 42//42 2//2 42//42 
f 42//42 2//2 2//2 
f 2//2 1//1 2//2 
f 2//2 1//1 10//10 
f 1//1 10//10 10//10 
f 10//10 10//10 11//11 
f 10//10 11//11 11//11 
f 11//11 11//11 9//9 
f 11//11 8//8 9//9 
f 9//9 8//8 8//8 
f 8//8 13//13 8//8 
f 8//8 13//13 13//13 
f 13//13 43//43 13//13 
f 13//13 43//43 15//15 
f 43//43 15//15 15//15 
f 15//15 15//15 16//16 
f 15//15 16//16 16//16 
f 16//16 16//16 14//14 
f 16//16 11//11 14//14 
f 14//14 11//11 11//11 
f 11//11 26//26 11//11 
f 11//11 26//26 26//26 
f 26//26 44//44 26//26 
f 26//26 44//44 28//28 
f 44//44 28//28 28//28 
f 28//28 28//28 29//29 
f 28//28 29//29 29//29 
f 29//29 29//29 27//27 
f 29//29 24//24 27//27 
f 27//27 24//24 24//24 
f 24//24 41//41 24//24 
f 24//24 41//41 41//41 
f 41//41 45//45 41//41 
f 41//41 45//45 40//40 
f 45//45 45//45 40//40 
f 40//40 45//45 37//37 
f 45//45 46//46 37//37 
f 37//37 46//46 47//47 
f 46//46 46//46 47//47 
f 47//47 46//46 5//5 
f 46//46 45//45 5//5 
f 5//5 45//45 4//4 
f 45//45 45//45 4//4 
f 4//4 45//45 3//3 
f 45//45 45//45 3//3 
f 3//3 45//45 48//48 
f 45//45 41//41 48//48 
f 48//48 41//41 41//41 
f 41//41 37//37 41//41 
f 41//41 37//37 37//37 
f 37//37 47//47 37//37 
f 37//37 47//47 36//36 
f 47//47 47//47 36//36 
f 36//36 47//47 33//33 
f 47//47 49//49 33//33 
f 33//33 49//49 33//33 
f 49//49 50//50 33//33 
f 33//33 50//50 32//32 
f 50//50 50//50 32//32 
f 32//32 50//50 29//29 
f 50//50 51//51 29//29 
f 29//29 51//51 24//24 
f 51//51 52//52 24//24 
f 24//24 52//52 23//23 
f 52//52 52//52 23//23 
f 23//23 52//52 20//20 
f 52//52 53//53 20//20 
f 20//20 53//53 20//20 
f 53//53 54//54 20//20 
f 20//20 54//54 19//19 
f 54//54 54//54 19//19 
f 19//19 54//54 16//16 
f 54//54 55//55 16//16 
f 16//16 55//55 11//11 
f 55//55 55//55 11//11 
f 11//11 55//55 8//8 
f 55//55 54//54 8//8 
f 8//8 54//54 56//56 
f 54//54 57//57 56//56 
f 56//56 57//57 56//56 
f 57//57 7//7 56//56 
f 56//56 7//7 8//8 
f 7//7 8//8 8//8 
f 8//8 8//8 51//51 
f 8//8 51//51 51//51 
f 51//51 51//51 52//52 
f 51//51 50//50 52//52 
f 52//52 50//50 58//58 
f 50//50 59//59 58//58 
f 58//58 59//59 58//58 
f 59//59 57//57 58//58 
f 58//58 57//57 52//52 
f 57//57 57//57 52//52 
f 52//52 57//57 53//53 
f 57//57 54//54 53//53 
f 53//53 54//54 54//54 
f 54//54 50//50 54//54 
f 54//54 50//50 50//50 
f 50//50 49//49 50//50 
f 50//50 49//49 59//59 
f 49//49 47//47 59//59 
f 59//59 47//47 60//60 
f 47//47 5//5 60//60 
f 60//60 5//5 60//60 
f 5//5 7//7 60//60 
f 60//60 7//7 59//59 
f 7//7 61//61 59//59 
f 59//59 61//61 57//57 
f 61//61 7//7 57//57 

